<?xml version="1.0" standalone="no"?>
<!DOCTYPE svg PUBLIC "-//W3C//DTD SVG 20010904//EN"
 "http://www.w3.org/TR/2001/REC-SVG-20010904/DTD/svg10.dtd">
<svg version="1.0" xmlns="http://www.w3.org/2000/svg"
 width="300.000000pt" height="300.000000pt" viewBox="0 0 300.000000 300.000000"
 preserveAspectRatio="xMidYMid meet">
<metadata>
Created by potrace 1.14, written by Peter Selinger 2001-2017
</metadata>
<g transform="translate(0.000000,300.000000) scale(0.100000,-0.100000)"
fill="#000000" stroke="none">
<path d="M1348 2995 c-2 -2 -22 -6 -44 -9 -184 -22 -401 -96 -564 -192 -128
-75 -297 -219 -398 -339 -42 -50 -130 -183 -170 -256 -72 -135 -131 -317 -157
-488 -19 -123 -12 -369 13 -497 104 -517 458 -935 950 -1120 309 -117 700
-122 1011 -12 509 180 876 601 982 1129 35 168 32 428 -5 609 -13 63 -50 181
-81 255 -201 487 -654 837 -1174 909 -84 12 -354 20 -363 11z m422 -419 c91
-23 254 -92 325 -138 166 -108 313 -273 403 -453 33 -67 77 -194 86 -246 3
-19 10 -56 15 -84 16 -85 6 -309 -18 -409 -12 -49 -29 -105 -37 -125 -44 -101
-70 -157 -75 -161 -3 -3 -9 -12 -13 -20 -94 -199 -360 -413 -612 -494 -226
-73 -484 -71 -709 6 -59 20 -215 94 -225 107 -3 3 -25 19 -49 35 -203 131
-386 403 -440 651 -24 109 -28 147 -29 251 -3 357 172 699 463 906 66 47 212
126 266 143 72 22 173 47 214 52 22 2 41 6 44 8 2 2 67 2 145 0 111 -2 163 -9
246 -29z"/>
</g>
</svg>
