<?xml version="1.0" standalone="no"?>
<!DOCTYPE svg PUBLIC "-//W3C//DTD SVG 20010904//EN"
 "http://www.w3.org/TR/2001/REC-SVG-20010904/DTD/svg10.dtd">
<svg version="1.0" xmlns="http://www.w3.org/2000/svg"
 width="700.000000pt" height="700.000000pt" viewBox="0 0 700.000000 700.000000"
 preserveAspectRatio="xMidYMid meet">
<metadata>
Created by potrace 1.14, written by Peter Selinger 2001-2017
</metadata>
<g transform="translate(0.000000,700.000000) scale(0.100000,-0.100000)"
fill="#000000" stroke="none">
<path d="M3230 6399 c-427 -40 -862 -183 -1235 -407 -199 -119 -367 -252 -546
-431 -251 -250 -412 -474 -564 -786 -439 -897 -384 -1967 145 -2815 237 -381
585 -723 965 -952 927 -557 2083 -557 3010 0 199 119 367 252 546 431 183 183
296 323 419 521 224 361 359 742 422 1190 20 146 17 585 -5 730 -70 453 -196
803 -417 1160 -235 378 -584 723 -965 952 -530 318 -1161 463 -1775 407z m550
-603 c19 -4 67 -11 105 -17 98 -16 92 -14 220 -49 516 -137 947 -440 1293
-910 29 -39 142 -226 142 -234 0 -5 9 -21 21 -37 11 -16 17 -29 13 -29 -3 0
-2 -6 4 -13 16 -19 74 -158 110 -262 52 -152 94 -337 110 -480 15 -147 8 -499
-13 -615 -3 -14 -7 -39 -10 -57 -5 -33 -32 -156 -40 -183 -2 -8 -13 -46 -24
-85 -42 -150 -132 -350 -224 -505 -374 -625 -1015 -1038 -1732 -1117 -91 -10
-432 -10 -515 0 -136 16 -285 46 -385 77 -16 6 -51 16 -77 25 -223 70 -533
234 -695 369 -8 6 -19 16 -26 21 -7 6 -28 23 -47 39 -78 63 -249 237 -300 305
-14 18 -30 38 -37 45 -19 21 -133 186 -133 193 0 4 -6 14 -14 22 -47 54 -168
316 -220 476 -87 267 -114 450 -111 755 1 124 5 234 8 245 2 11 8 43 11 70 4
28 9 57 11 65 2 8 6 32 10 54 3 21 7 41 10 45 2 4 6 18 9 32 11 52 15 67 41
153 30 98 91 249 138 341 313 613 865 1052 1523 1211 204 49 329 62 569 59
121 -2 236 -6 255 -9z"/>
</g>
</svg>
