<svg width="640" height="360" viewBox="0 0 640 360" fill="none" xmlns="http://www.w3.org/2000/svg">
<rect width="640" height="360" rx="31" fill="#0A0A0A"/>
<g clip-path="url(#clip0_100_533)">
<path d="M369.53 186.625L324.03 107.875C323.351 106.705 322.181 106.125 321 106.125C319.819 106.125 318.637 106.705 317.97 107.875L272.47 186.625C271.125 188.966 272.809 191.875 275.5 191.875H366.5C369.19 191.875 370.875 188.966 369.53 186.625ZM317.5 138.5C317.5 138.019 317.894 137.625 318.375 137.625H323.625C324.106 137.625 324.5 138.019 324.5 138.5V158.625C324.5 159.106 324.106 159.5 323.625 159.5H318.375C317.894 159.5 317.5 159.106 317.5 158.625V138.5ZM321 177C319.626 176.972 318.318 176.407 317.356 175.425C316.395 174.443 315.856 173.124 315.856 171.75C315.856 170.376 316.395 169.057 317.356 168.075C318.318 167.093 319.626 166.528 321 166.5C322.374 166.528 323.682 167.093 324.643 168.075C325.605 169.057 326.144 170.376 326.144 171.75C326.144 173.124 325.605 174.443 324.643 175.425C323.682 176.407 322.374 176.972 321 177V177Z" fill="#CA9C57"/>
</g>
<path d="M293.563 208.344L289.963 220H287.515L285.323 212.776C285.28 212.664 285.24 212.541 285.203 212.408C285.165 212.269 285.128 212.125 285.091 211.976C285.053 212.125 285.016 212.269 284.979 212.408C284.941 212.541 284.901 212.664 284.859 212.776L282.635 220H280.187L276.587 208.344H278.859C279.093 208.344 279.288 208.397 279.443 208.504C279.603 208.611 279.707 208.752 279.755 208.928L281.355 215.008C281.403 215.2 281.451 215.411 281.499 215.64C281.547 215.864 281.595 216.099 281.643 216.344C281.739 215.843 281.856 215.397 281.995 215.008L283.883 208.928C283.931 208.779 284.032 208.645 284.187 208.528C284.347 208.405 284.539 208.344 284.763 208.344H285.563C285.797 208.344 285.987 208.4 286.131 208.512C286.275 208.619 286.384 208.757 286.459 208.928L288.331 215.008C288.469 215.381 288.587 215.805 288.683 216.28C288.725 216.04 288.768 215.816 288.811 215.608C288.859 215.395 288.907 215.195 288.955 215.008L290.555 208.928C290.597 208.773 290.699 208.637 290.859 208.52C291.019 208.403 291.211 208.344 291.435 208.344H293.563ZM300.061 215.544L298.981 212.352C298.901 212.149 298.816 211.912 298.725 211.64C298.635 211.363 298.544 211.064 298.453 210.744C298.373 211.069 298.288 211.371 298.197 211.648C298.107 211.925 298.021 212.165 297.941 212.368L296.869 215.544H300.061ZM304.357 220H302.261C302.027 220 301.837 219.947 301.693 219.84C301.549 219.728 301.44 219.587 301.365 219.416L300.677 217.384H296.245L295.557 219.416C295.499 219.565 295.392 219.701 295.237 219.824C295.088 219.941 294.901 220 294.677 220H292.565L297.077 208.344H299.845L304.357 220ZM309.068 213.824C309.436 213.824 309.748 213.779 310.004 213.688C310.266 213.592 310.479 213.461 310.644 213.296C310.81 213.131 310.93 212.939 311.004 212.72C311.079 212.496 311.116 212.256 311.116 212C311.116 211.488 310.948 211.088 310.612 210.8C310.282 210.512 309.767 210.368 309.068 210.368H307.98V213.824H309.068ZM314.812 220H312.364C311.911 220 311.586 219.829 311.388 219.488L309.452 216.104C309.362 215.96 309.26 215.856 309.148 215.792C309.036 215.723 308.876 215.688 308.668 215.688H307.98V220H305.276V208.344H309.068C309.911 208.344 310.628 208.432 311.22 208.608C311.818 208.779 312.303 209.019 312.676 209.328C313.055 209.637 313.33 210.003 313.5 210.424C313.671 210.845 313.756 211.304 313.756 211.8C313.756 212.179 313.706 212.536 313.604 212.872C313.503 213.208 313.354 213.52 313.156 213.808C312.959 214.091 312.714 214.344 312.42 214.568C312.132 214.792 311.799 214.976 311.42 215.12C311.596 215.211 311.762 215.325 311.916 215.464C312.071 215.597 312.21 215.757 312.332 215.944L314.812 220ZM325.968 208.344V220H324.56C324.352 220 324.176 219.968 324.032 219.904C323.893 219.835 323.755 219.717 323.616 219.552L318.12 212.6C318.141 212.808 318.155 213.011 318.16 213.208C318.171 213.4 318.176 213.581 318.176 213.752V220H315.792V208.344H317.216C317.333 208.344 317.432 208.349 317.512 208.36C317.592 208.371 317.664 208.392 317.728 208.424C317.792 208.451 317.853 208.491 317.912 208.544C317.971 208.597 318.037 208.669 318.112 208.76L323.656 215.76C323.629 215.536 323.611 215.32 323.6 215.112C323.589 214.899 323.584 214.699 323.584 214.512V208.344H325.968ZM330.95 220H328.23V208.344H330.95V220ZM343.374 208.344V220H341.966C341.758 220 341.582 219.968 341.438 219.904C341.3 219.835 341.161 219.717 341.022 219.552L335.526 212.6C335.548 212.808 335.561 213.011 335.566 213.208C335.577 213.4 335.582 213.581 335.582 213.752V220H333.198V208.344H334.622C334.74 208.344 334.838 208.349 334.918 208.36C334.998 208.371 335.07 208.392 335.134 208.424C335.198 208.451 335.26 208.491 335.318 208.544C335.377 208.597 335.444 208.669 335.518 208.76L341.062 215.76C341.036 215.536 341.017 215.32 341.006 215.112C340.996 214.899 340.99 214.699 340.99 214.512V208.344H343.374ZM351.236 213.96H355.38V218.88C354.782 219.317 354.145 219.635 353.468 219.832C352.796 220.029 352.092 220.128 351.356 220.128C350.396 220.128 349.521 219.979 348.732 219.68C347.948 219.376 347.276 218.96 346.716 218.432C346.156 217.899 345.724 217.269 345.42 216.544C345.116 215.813 344.964 215.021 344.964 214.168C344.964 213.299 345.108 212.501 345.396 211.776C345.684 211.045 346.094 210.416 346.628 209.888C347.166 209.36 347.814 208.949 348.572 208.656C349.334 208.363 350.185 208.216 351.124 208.216C351.609 208.216 352.065 208.256 352.492 208.336C352.918 208.416 353.31 208.525 353.668 208.664C354.03 208.803 354.361 208.968 354.66 209.16C354.958 209.352 355.225 209.56 355.46 209.784L354.676 210.976C354.553 211.163 354.393 211.277 354.196 211.32C354.004 211.363 353.796 211.315 353.572 211.176C353.358 211.048 353.156 210.939 352.964 210.848C352.777 210.752 352.585 210.675 352.388 210.616C352.19 210.557 351.982 210.515 351.764 210.488C351.545 210.461 351.3 210.448 351.028 210.448C350.521 210.448 350.065 210.539 349.66 210.72C349.254 210.896 348.908 211.147 348.62 211.472C348.337 211.797 348.118 212.189 347.964 212.648C347.809 213.101 347.732 213.608 347.732 214.168C347.732 214.787 347.817 215.336 347.988 215.816C348.158 216.296 348.398 216.701 348.708 217.032C349.022 217.363 349.396 217.616 349.828 217.792C350.265 217.963 350.748 218.048 351.276 218.048C351.601 218.048 351.894 218.016 352.156 217.952C352.422 217.888 352.681 217.803 352.932 217.696V215.928H351.78C351.609 215.928 351.476 215.883 351.38 215.792C351.284 215.701 351.236 215.587 351.236 215.448V213.96ZM359.574 208.344V212.92C359.574 213.411 359.545 213.899 359.486 214.384C359.428 214.864 359.35 215.355 359.254 215.856H357.574C357.478 215.355 357.401 214.864 357.342 214.384C357.284 213.899 357.254 213.411 357.254 212.92V208.344H359.574ZM356.982 218.744C356.982 218.552 357.017 218.373 357.086 218.208C357.161 218.043 357.26 217.899 357.382 217.776C357.51 217.653 357.66 217.557 357.83 217.488C358.001 217.413 358.188 217.376 358.39 217.376C358.588 217.376 358.772 217.413 358.942 217.488C359.113 217.557 359.262 217.653 359.39 217.776C359.518 217.899 359.617 218.043 359.686 218.208C359.761 218.373 359.798 218.552 359.798 218.744C359.798 218.936 359.761 219.117 359.686 219.288C359.617 219.453 359.518 219.597 359.39 219.72C359.262 219.843 359.113 219.939 358.942 220.008C358.772 220.077 358.588 220.112 358.39 220.112C358.188 220.112 358.001 220.077 357.83 220.008C357.66 219.939 357.51 219.843 357.382 219.72C357.26 219.597 357.161 219.453 357.086 219.288C357.017 219.117 356.982 218.936 356.982 218.744ZM229.606 229.488H226.326V239H223.622V229.488H220.342V227.344H229.606V229.488ZM241.156 227.344V239H238.436V234.072H233.7V239H230.98V227.344H233.7V232.216H238.436V227.344H241.156ZM246.137 239H243.417V227.344H246.137V239ZM254.826 229.712C254.746 229.84 254.66 229.936 254.57 230C254.484 230.064 254.372 230.096 254.234 230.096C254.111 230.096 253.978 230.059 253.834 229.984C253.695 229.904 253.535 229.816 253.354 229.72C253.178 229.624 252.975 229.539 252.746 229.464C252.516 229.384 252.255 229.344 251.962 229.344C251.455 229.344 251.076 229.453 250.826 229.672C250.58 229.885 250.458 230.176 250.458 230.544C250.458 230.779 250.532 230.973 250.682 231.128C250.831 231.283 251.026 231.416 251.266 231.528C251.511 231.64 251.788 231.744 252.098 231.84C252.412 231.931 252.732 232.035 253.058 232.152C253.383 232.264 253.7 232.397 254.01 232.552C254.324 232.707 254.602 232.904 254.842 233.144C255.087 233.384 255.284 233.677 255.434 234.024C255.583 234.365 255.658 234.779 255.658 235.264C255.658 235.803 255.564 236.307 255.378 236.776C255.191 237.245 254.919 237.656 254.562 238.008C254.21 238.355 253.772 238.629 253.25 238.832C252.732 239.029 252.143 239.128 251.482 239.128C251.119 239.128 250.748 239.091 250.37 239.016C249.996 238.941 249.634 238.837 249.282 238.704C248.93 238.565 248.599 238.403 248.29 238.216C247.98 238.029 247.711 237.821 247.482 237.592L248.282 236.328C248.346 236.237 248.428 236.163 248.53 236.104C248.636 236.04 248.751 236.008 248.874 236.008C249.034 236.008 249.194 236.059 249.354 236.16C249.519 236.261 249.703 236.373 249.906 236.496C250.114 236.619 250.351 236.731 250.618 236.832C250.884 236.933 251.199 236.984 251.562 236.984C252.052 236.984 252.434 236.877 252.706 236.664C252.978 236.445 253.114 236.101 253.114 235.632C253.114 235.36 253.039 235.139 252.89 234.968C252.74 234.797 252.543 234.656 252.298 234.544C252.058 234.432 251.783 234.333 251.474 234.248C251.164 234.163 250.847 234.069 250.522 233.968C250.196 233.861 249.879 233.733 249.57 233.584C249.26 233.429 248.983 233.229 248.738 232.984C248.498 232.733 248.303 232.424 248.154 232.056C248.004 231.683 247.93 231.224 247.93 230.68C247.93 230.243 248.018 229.816 248.194 229.4C248.37 228.984 248.628 228.613 248.97 228.288C249.311 227.963 249.73 227.704 250.226 227.512C250.722 227.315 251.29 227.216 251.93 227.216C252.287 227.216 252.634 227.245 252.97 227.304C253.311 227.357 253.634 227.44 253.938 227.552C254.242 227.659 254.524 227.789 254.786 227.944C255.052 228.093 255.29 228.264 255.498 228.456L254.826 229.712ZM271.524 233.168C271.524 234.011 271.378 234.789 271.084 235.504C270.796 236.213 270.388 236.829 269.86 237.352C269.332 237.869 268.695 238.275 267.948 238.568C267.207 238.856 266.383 239 265.476 239H260.948V227.344H265.476C266.383 227.344 267.207 227.491 267.948 227.784C268.695 228.077 269.332 228.483 269.86 229C270.388 229.517 270.796 230.133 271.084 230.848C271.378 231.557 271.524 232.331 271.524 233.168ZM268.756 233.168C268.756 232.592 268.682 232.072 268.532 231.608C268.383 231.144 268.167 230.752 267.884 230.432C267.607 230.107 267.266 229.859 266.86 229.688C266.455 229.512 265.994 229.424 265.476 229.424H263.668V236.92H265.476C265.994 236.92 266.455 236.835 266.86 236.664C267.266 236.488 267.607 236.24 267.884 235.92C268.167 235.595 268.383 235.2 268.532 234.736C268.682 234.272 268.756 233.749 268.756 233.168ZM284.56 233.168C284.56 234.011 284.414 234.795 284.12 235.52C283.832 236.245 283.424 236.877 282.896 237.416C282.368 237.949 281.731 238.368 280.984 238.672C280.243 238.976 279.419 239.128 278.512 239.128C277.606 239.128 276.779 238.976 276.032 238.672C275.286 238.368 274.646 237.949 274.112 237.416C273.584 236.877 273.174 236.245 272.88 235.52C272.592 234.795 272.448 234.011 272.448 233.168C272.448 232.325 272.592 231.541 272.88 230.816C273.174 230.091 273.584 229.461 274.112 228.928C274.646 228.395 275.286 227.976 276.032 227.672C276.779 227.368 277.606 227.216 278.512 227.216C279.419 227.216 280.243 227.371 280.984 227.68C281.731 227.984 282.368 228.403 282.896 228.936C283.424 229.469 283.832 230.099 284.12 230.824C284.414 231.549 284.56 232.331 284.56 233.168ZM281.792 233.168C281.792 232.592 281.718 232.075 281.568 231.616C281.419 231.152 281.203 230.76 280.92 230.44C280.643 230.12 280.302 229.875 279.896 229.704C279.491 229.533 279.03 229.448 278.512 229.448C277.99 229.448 277.523 229.533 277.112 229.704C276.707 229.875 276.363 230.12 276.08 230.44C275.803 230.76 275.59 231.152 275.44 231.616C275.291 232.075 275.216 232.592 275.216 233.168C275.216 233.749 275.291 234.272 275.44 234.736C275.59 235.195 275.803 235.584 276.08 235.904C276.363 236.224 276.707 236.469 277.112 236.64C277.523 236.805 277.99 236.888 278.512 236.888C279.03 236.888 279.491 236.805 279.896 236.64C280.302 236.469 280.643 236.224 280.92 235.904C281.203 235.584 281.419 235.195 281.568 234.736C281.718 234.272 281.792 233.749 281.792 233.168ZM288.871 229.424V232.144H292.535V234.144H288.871V236.92H293.655V239H286.151V227.344H293.655V229.424H288.871ZM301.763 229.712C301.683 229.84 301.598 229.936 301.507 230C301.422 230.064 301.31 230.096 301.171 230.096C301.049 230.096 300.915 230.059 300.771 229.984C300.633 229.904 300.473 229.816 300.291 229.72C300.115 229.624 299.913 229.539 299.683 229.464C299.454 229.384 299.193 229.344 298.899 229.344C298.393 229.344 298.014 229.453 297.763 229.672C297.518 229.885 297.395 230.176 297.395 230.544C297.395 230.779 297.47 230.973 297.619 231.128C297.769 231.283 297.963 231.416 298.203 231.528C298.449 231.64 298.726 231.744 299.035 231.84C299.35 231.931 299.67 232.035 299.995 232.152C300.321 232.264 300.638 232.397 300.947 232.552C301.262 232.707 301.539 232.904 301.779 233.144C302.025 233.384 302.222 233.677 302.371 234.024C302.521 234.365 302.595 234.779 302.595 235.264C302.595 235.803 302.502 236.307 302.315 236.776C302.129 237.245 301.857 237.656 301.499 238.008C301.147 238.355 300.71 238.629 300.187 238.832C299.67 239.029 299.081 239.128 298.419 239.128C298.057 239.128 297.686 239.091 297.307 239.016C296.934 238.941 296.571 238.837 296.219 238.704C295.867 238.565 295.537 238.403 295.227 238.216C294.918 238.029 294.649 237.821 294.419 237.592L295.219 236.328C295.283 236.237 295.366 236.163 295.467 236.104C295.574 236.04 295.689 236.008 295.811 236.008C295.971 236.008 296.131 236.059 296.291 236.16C296.457 236.261 296.641 236.373 296.843 236.496C297.051 236.619 297.289 236.731 297.555 236.832C297.822 236.933 298.137 236.984 298.499 236.984C298.99 236.984 299.371 236.877 299.643 236.664C299.915 236.445 300.051 236.101 300.051 235.632C300.051 235.36 299.977 235.139 299.827 234.968C299.678 234.797 299.481 234.656 299.235 234.544C298.995 234.432 298.721 234.333 298.411 234.248C298.102 234.163 297.785 234.069 297.459 233.968C297.134 233.861 296.817 233.733 296.507 233.584C296.198 233.429 295.921 233.229 295.675 232.984C295.435 232.733 295.241 232.424 295.091 232.056C294.942 231.683 294.867 231.224 294.867 230.68C294.867 230.243 294.955 229.816 295.131 229.4C295.307 228.984 295.566 228.613 295.907 228.288C296.249 227.963 296.667 227.704 297.163 227.512C297.659 227.315 298.227 227.216 298.867 227.216C299.225 227.216 299.571 227.245 299.907 227.304C300.249 227.357 300.571 227.44 300.875 227.552C301.179 227.659 301.462 227.789 301.723 227.944C301.99 228.093 302.227 228.264 302.435 228.456L301.763 229.712ZM318.062 227.344V239H316.654C316.446 239 316.27 238.968 316.126 238.904C315.987 238.835 315.848 238.717 315.71 238.552L310.214 231.6C310.235 231.808 310.248 232.011 310.254 232.208C310.264 232.4 310.27 232.581 310.27 232.752V239H307.886V227.344H309.31C309.427 227.344 309.526 227.349 309.606 227.36C309.686 227.371 309.758 227.392 309.822 227.424C309.886 227.451 309.947 227.491 310.006 227.544C310.064 227.597 310.131 227.669 310.206 227.76L315.75 234.76C315.723 234.536 315.704 234.32 315.694 234.112C315.683 233.899 315.678 233.699 315.678 233.512V227.344H318.062ZM331.763 233.168C331.763 234.011 331.617 234.795 331.323 235.52C331.035 236.245 330.627 236.877 330.099 237.416C329.571 237.949 328.934 238.368 328.187 238.672C327.446 238.976 326.622 239.128 325.715 239.128C324.809 239.128 323.982 238.976 323.235 238.672C322.489 238.368 321.849 237.949 321.315 237.416C320.787 236.877 320.377 236.245 320.083 235.52C319.795 234.795 319.651 234.011 319.651 233.168C319.651 232.325 319.795 231.541 320.083 230.816C320.377 230.091 320.787 229.461 321.315 228.928C321.849 228.395 322.489 227.976 323.235 227.672C323.982 227.368 324.809 227.216 325.715 227.216C326.622 227.216 327.446 227.371 328.187 227.68C328.934 227.984 329.571 228.403 330.099 228.936C330.627 229.469 331.035 230.099 331.323 230.824C331.617 231.549 331.763 232.331 331.763 233.168ZM328.995 233.168C328.995 232.592 328.921 232.075 328.771 231.616C328.622 231.152 328.406 230.76 328.123 230.44C327.846 230.12 327.505 229.875 327.099 229.704C326.694 229.533 326.233 229.448 325.715 229.448C325.193 229.448 324.726 229.533 324.315 229.704C323.91 229.875 323.566 230.12 323.283 230.44C323.006 230.76 322.793 231.152 322.643 231.616C322.494 232.075 322.419 232.592 322.419 233.168C322.419 233.749 322.494 234.272 322.643 234.736C322.793 235.195 323.006 235.584 323.283 235.904C323.566 236.224 323.91 236.469 324.315 236.64C324.726 236.805 325.193 236.888 325.715 236.888C326.233 236.888 326.694 236.805 327.099 236.64C327.505 236.469 327.846 236.224 328.123 235.904C328.406 235.584 328.622 235.195 328.771 234.736C328.921 234.272 328.995 233.749 328.995 233.168ZM341.449 229.488H338.169V239H335.465V229.488H332.185V227.344H341.449V229.488ZM348.762 229.424V232.144H352.426V234.144H348.762V236.92H353.546V239H346.042V227.344H353.546V229.424H348.762ZM365.214 239H362.51C362.334 239 362.19 238.957 362.078 238.872C361.971 238.787 361.886 238.685 361.822 238.568L359.486 234.488C359.443 234.605 359.395 234.707 359.342 234.792L357.166 238.568C357.091 238.675 357.003 238.773 356.902 238.864C356.801 238.955 356.67 239 356.51 239H353.982L357.734 233L354.126 227.344H356.83C357.006 227.344 357.134 227.368 357.214 227.416C357.299 227.459 357.374 227.533 357.438 227.64L359.758 231.568C359.785 231.499 359.814 231.432 359.846 231.368C359.883 231.304 359.923 231.237 359.966 231.168L361.998 227.68C362.073 227.563 362.15 227.477 362.23 227.424C362.315 227.371 362.419 227.344 362.542 227.344H365.134L361.478 232.888L365.214 239ZM368.981 239H366.261V227.344H368.981V239ZM377.67 229.712C377.59 229.84 377.504 229.936 377.414 230C377.328 230.064 377.216 230.096 377.078 230.096C376.955 230.096 376.822 230.059 376.678 229.984C376.539 229.904 376.379 229.816 376.198 229.72C376.022 229.624 375.819 229.539 375.59 229.464C375.36 229.384 375.099 229.344 374.806 229.344C374.299 229.344 373.92 229.453 373.67 229.672C373.424 229.885 373.302 230.176 373.302 230.544C373.302 230.779 373.376 230.973 373.526 231.128C373.675 231.283 373.87 231.416 374.11 231.528C374.355 231.64 374.632 231.744 374.942 231.84C375.256 231.931 375.576 232.035 375.902 232.152C376.227 232.264 376.544 232.397 376.854 232.552C377.168 232.707 377.446 232.904 377.686 233.144C377.931 233.384 378.128 233.677 378.278 234.024C378.427 234.365 378.502 234.779 378.502 235.264C378.502 235.803 378.408 236.307 378.222 236.776C378.035 237.245 377.763 237.656 377.406 238.008C377.054 238.355 376.616 238.629 376.094 238.832C375.576 239.029 374.987 239.128 374.326 239.128C373.963 239.128 373.592 239.091 373.214 239.016C372.84 238.941 372.478 238.837 372.126 238.704C371.774 238.565 371.443 238.403 371.134 238.216C370.824 238.029 370.555 237.821 370.326 237.592L371.126 236.328C371.19 236.237 371.272 236.163 371.374 236.104C371.48 236.04 371.595 236.008 371.718 236.008C371.878 236.008 372.038 236.059 372.198 236.16C372.363 236.261 372.547 236.373 372.75 236.496C372.958 236.619 373.195 236.731 373.462 236.832C373.728 236.933 374.043 236.984 374.406 236.984C374.896 236.984 375.278 236.877 375.55 236.664C375.822 236.445 375.958 236.101 375.958 235.632C375.958 235.36 375.883 235.139 375.734 234.968C375.584 234.797 375.387 234.656 375.142 234.544C374.902 234.432 374.627 234.333 374.318 234.248C374.008 234.163 373.691 234.069 373.366 233.968C373.04 233.861 372.723 233.733 372.414 233.584C372.104 233.429 371.827 233.229 371.582 232.984C371.342 232.733 371.147 232.424 370.998 232.056C370.848 231.683 370.774 231.224 370.774 230.68C370.774 230.243 370.862 229.816 371.038 229.4C371.214 228.984 371.472 228.613 371.814 228.288C372.155 227.963 372.574 227.704 373.07 227.512C373.566 227.315 374.134 227.216 374.774 227.216C375.131 227.216 375.478 227.245 375.814 227.304C376.155 227.357 376.478 227.44 376.782 227.552C377.086 227.659 377.368 227.789 377.63 227.944C377.896 228.093 378.134 228.264 378.342 228.456L377.67 229.712ZM388.465 229.488H385.185V239H382.481V229.488H379.201V227.344H388.465V229.488ZM397.97 234.568V239H395.266V234.568L391.042 227.344H393.426C393.66 227.344 393.844 227.4 393.978 227.512C394.116 227.619 394.231 227.757 394.322 227.928L395.97 231.32C396.108 231.587 396.234 231.837 396.346 232.072C396.458 232.301 396.556 232.528 396.642 232.752C396.722 232.523 396.812 232.293 396.914 232.064C397.02 231.829 397.143 231.581 397.282 231.32L398.914 227.928C398.951 227.859 398.996 227.789 399.05 227.72C399.103 227.651 399.164 227.589 399.234 227.536C399.308 227.477 399.391 227.432 399.482 227.4C399.578 227.363 399.682 227.344 399.794 227.344H402.194L397.97 234.568ZM405.825 229.424V232.144H409.489V234.144H405.825V236.92H410.609V239H403.105V227.344H410.609V229.424H405.825ZM420.652 229.488H417.372V239H414.668V229.488H411.388V227.344H420.652V229.488Z" fill="#C89A56"/>
<defs>
<clipPath id="clip0_100_533">
<rect width="98" height="98" fill="white" transform="translate(272 100)"/>
</clipPath>
</defs>
</svg>
